<svg class="svgicon" id="svg8" preserveAspectRatio="xMidYMid meet" xmlns="http://www.w3.org/2000/svg" viewBox="0 0 60 60"><rect x="0" y="0" width="60" height="60" style="fill: transparent" rx="50%" ry="50%"></rect><g stroke="rgb(200, 0, 0)" stroke-width="1.5" style="fill:none" transform="scale(0.6) translate(20, 20)"><path class="st0" d="M33.57,46.272L10.441,8.747l-5.97,3.366c-1.13,0.64-2.555,0.221-3.179-0.936 c-0.625-1.156-0.214-2.609,0.917-3.246l7.904-4.46c1.085-0.612,2.45-0.254,3.112,0.819l24.02,38.972"></path><path class="st0" d="M44.718,45.225l10.694-6.878c1.098-0.7,2.54-0.364,3.227,0.75c0.69,1.117,0.36,2.594-0.733,3.298 l-11.54,7.418"></path><path class="st0" d="M29.738,31.033c-0.707-1.152-0.366-2.672,0.763-3.395l14.743-9.443c1.129-0.723,2.617-0.373,3.327,0.777 l9.157,14.986c0.708,1.153,0.367,2.674-0.761,3.396l-12.249,7.869"></path><path class="st0" d="M21.252,17.214c-0.482-0.787-0.249-1.828,0.524-2.322L31.863,8.43c0.773-0.494,1.792-0.256,2.276,0.533 l6.325,10.303c0.484,0.791,0.251,1.83-0.521,2.325l-10.089,6.46c-0.773,0.494-1.792,0.257-2.275-0.533"></path><ellipse class="st0" cx="39.498" cy="49.812" rx="6.868" ry="7.015"></ellipse><ellipse class="st0" cx="39.5" cy="49.812" rx="2.448" ry="2.5"></ellipse></g></svg>